<svg id="Capa_1" enable-background="new 0 0 458.352 458.352" height="512" viewBox="0 0 458.352 458.352" width="512" xmlns="http://www.w3.org/2000/svg"><path d="m454.165 204.922-172.003-172.25c-5.359-5.368-14.85-5.368-20.209 0l-257.766 258.116c-5.583 5.59-5.583 14.647 0 20.237l114.333 114.488c2.68 2.684 6.309 4.193 10.104 4.193h115.352c3.796 0 7.426-1.509 10.104-4.193l200.084-200.355c5.584-5.59 5.584-14.647.001-20.236zm-216.105 196.161h-103.517l-100.043-100.177 108.678-108.825 151.902 151.902zm77.264-77.366-151.905-151.904 108.639-108.785 151.794 152.012s-108.528 108.677-108.528 108.677z"/></svg>